<svg width="50" height="50" viewBox="0 0 50 50" fill="none" xmlns="http://www.w3.org/2000/svg">
<g clip-path="url(#clip0)">
<path d="M17.832 19.784V18.152C18.312 17.96 18.952 17.768 19.752 17.576C20.552 17.352 21.4 17.16 22.296 17C23.192 16.84 24.072 16.712 24.936 16.616C25.832 16.488 26.616 16.424 27.288 16.424L28.152 17L23.832 37.688H27.192V39.32C26.776 39.608 26.28 39.88 25.704 40.136C25.16 40.392 24.568 40.616 23.928 40.808C23.32 41 22.696 41.144 22.056 41.24C21.416 41.368 20.808 41.432 20.232 41.432C19.016 41.432 18.168 41.208 17.688 40.76C17.24 40.28 17.016 39.768 17.016 39.224C17.016 38.584 17.064 37.96 17.16 37.352C17.256 36.744 17.384 36.072 17.544 35.336L20.808 20.456L17.832 19.784ZM21.816 8.984C21.816 7.896 22.184 7.048 22.92 6.44C23.656 5.832 24.584 5.528 25.704 5.528C26.92 5.528 27.88 5.832 28.584 6.44C29.32 7.048 29.688 7.896 29.688 8.984C29.688 10.008 29.32 10.824 28.584 11.432C27.88 12.04 26.92 12.344 25.704 12.344C24.584 12.344 23.656 12.04 22.92 11.432C22.184 10.824 21.816 10.008 21.816 8.984Z" fill="#0C2297"/>
<ellipse cx="25.5" cy="9" rx="4.5" ry="4" fill="#DB0505"/>
</g>
<defs>
<clipPath id="clip0">
<rect width="50" height="50" fill="white"/>
</clipPath>
</defs>
</svg>
