<svg width="210" height="54" viewBox="0 0 210 54" fill="none" xmlns="http://www.w3.org/2000/svg">
<path d="M59.9441 20V2.3416H56.1602V12.9871L47.785 2.3416H44.5561V20H48.34V9.40496L56.7151 20H59.9441ZM63.9813 20H68.0427L69.5059 16.2917H76.4935L77.9567 20H82.2703L74.9295 2.3416H71.3221L63.9813 20ZM73.0123 7.51299L74.98 12.5078H71.0194L73.0123 7.51299ZM90.3329 20V13.8196H91.8213L96.1097 20H101.004L95.8575 13.0375C96.8161 12.5582 98.8342 11.2213 98.8342 7.94184C98.8342 4.68765 97.1188 2.29115 92.3006 2.29115C91.796 2.29115 87.2805 2.3416 86.2967 2.3416V20H90.3329ZM92.0987 6.07509C94.0412 6.07509 94.5457 7.00846 94.5457 7.99229C94.5457 9.48064 93.3348 10.0356 91.796 10.0356H90.3329V6.12554C91.1654 6.10032 91.4933 6.07509 92.0987 6.07509ZM105.036 20H109.072V11.5996L115.101 20H120.222L113.058 10.4897L119.693 2.3416H114.849L109.072 10.0356V2.3416H105.036V20ZM124.268 20H134.989V16.2161H128.304V13.0123H133.98V9.22838H128.304V6.12554H134.737V2.3416H124.268V20ZM155.074 2.3416H151.013L146.775 13.9961L142.335 2.3416H138.021L145.085 20H148.188L155.074 2.3416ZM159.117 20H163.153V2.3416H159.117V20ZM181.93 15.2322C180.745 16.1152 179.357 16.5188 178.096 16.5188C174.917 16.5188 172.748 14.2989 172.748 11.1708C172.748 7.68957 174.968 5.82283 177.692 5.82283C179.357 5.82283 180.341 6.32735 181.3 6.90756L183.091 3.8804C182.031 2.84613 180.038 2.03889 177.692 2.03889C171.613 2.03889 168.459 6.10032 168.459 11.1708C168.459 16.6701 172.243 20.3027 177.718 20.3027C180.114 20.3027 182.41 19.445 183.469 18.2594L181.93 15.2322ZM198.486 20H202.522V2.3416H198.486V9.10225H192.053V2.3416H188.017V20H192.053V12.8862H198.486V20ZM44.8083 50H48.8445V32.3416H44.8083V50ZM70.8003 50V32.3416H67.0163V42.9871L58.6412 32.3416H55.4122V50H59.1962V39.405L67.5713 50H70.8003ZM89.3173 45.2322C88.1317 46.1152 86.7443 46.5188 85.483 46.5188C82.3044 46.5188 80.135 44.2989 80.135 41.1708C80.135 37.6896 82.3549 35.8228 85.0793 35.8228C86.7443 35.8228 87.7281 36.3274 88.6867 36.9076L90.4778 33.8804C89.4183 32.8461 87.4254 32.0389 85.0793 32.0389C78.9998 32.0389 75.8465 36.1003 75.8465 41.1708C75.8465 46.6701 79.6305 50.3027 85.1046 50.3027C87.5011 50.3027 89.7967 49.445 90.8562 48.2594L89.3173 45.2322Z" fill="black"/>
<path d="M94.1425 47.5783C94.1425 48.9153 95.1011 50.1514 96.7155 50.1514C98.1282 50.1514 99.0868 48.9153 99.0868 47.5783C99.0868 46.4431 98.1282 45.207 96.7155 45.207C95.1011 45.207 94.1425 46.4431 94.1425 47.5783Z" fill="#1F38BB"/>
<rect x="28" y="2" width="7" height="18" fill="#1F38BB"/>
<rect y="50" width="7" height="35" transform="rotate(-90 0 50)" fill="#1F38BB"/>
<rect y="2" width="7" height="48" fill="#1F38BB"/>
<rect y="9" width="7" height="35" transform="rotate(-90 0 9)" fill="#1F38BB"/>
<rect x="28" y="32" width="7" height="18" fill="#1F38BB"/>
<rect x="30" y="4" width="4" height="8" fill="#1F38BB"/>
<rect x="34" y="45" width="4" height="8" transform="rotate(90 34 45)" fill="#1F38BB"/>
<rect x="11" y="45" width="4" height="8" transform="rotate(90 11 45)" fill="#1F38BB"/>
<rect x="5" y="13" width="4" height="8" transform="rotate(-180 5 13)" fill="#1F38BB"/>
</svg>
